<svg width="657" height="657" viewBox="0 0 657 657" fill="none" xmlns="http://www.w3.org/2000/svg">
<path d="M232.578 334.242C265.888 240.738 266.059 140.072 391.099 146.34C540.382 153.883 574.56 276.282 519.556 386.474C489.846 446.011 376.987 511.159 303.179 509.372C265.954 508.479 190.044 488.453 176.904 454.184C156.287 400.363 216.179 380.495 232.578 334.242Z" fill="#2563EB"/>
<path opacity="0.9" d="M232.578 334.242C265.888 240.738 266.059 140.072 391.099 146.34C540.382 153.883 574.56 276.282 519.556 386.474C489.846 446.011 376.987 511.159 303.179 509.372C265.954 508.479 190.044 488.453 176.904 454.184C156.287 400.363 216.179 380.495 232.578 334.242Z" fill="white"/>
<path d="M328.5 561.814C187.794 561.814 73.7285 555.154 73.7285 546.939C73.7285 538.724 187.794 532.065 328.5 532.065C469.206 532.065 583.271 538.724 583.271 546.939C583.271 555.154 469.206 561.814 328.5 561.814Z" fill="#F5F5F5"/>
<path d="M184.065 354.911C180.123 370.101 161.727 357.185 152.7 346.016C160.584 341.075 172.699 339.143 179.571 343.388C176.164 337.825 172.515 332.398 168.626 327.107C168.785 328.199 168.812 329.307 168.705 330.405C166.72 346.029 146.761 335.412 136.328 325.346C143.528 319.473 155.354 316.07 162.739 319.447C161.267 317.607 159.765 315.794 158.232 314.007C147.155 314.256 147.076 297.411 151.255 287.083C162.003 294.599 170.281 311.063 161.149 313.586C165.135 318.334 168.915 323.209 172.489 328.211C171.333 320.327 176.299 308.948 183.08 302.535C194.564 317.765 196.732 342.901 181.056 337.527C179.993 337.197 178.967 336.757 177.995 336.213C181.604 341.732 184.976 347.391 188.112 353.19C187.968 345.24 194.341 334.636 201.87 329.131C211.278 345.582 210.24 370.679 195.418 363.452C194.404 363.001 193.44 362.446 192.54 361.797C195.423 367.701 198.051 373.71 200.424 379.825C201.279 371.941 208.926 362.23 217.086 357.71C224.339 375.081 220.24 399.89 206.39 390.876C205.448 390.306 204.568 389.641 203.762 388.891C205.891 395.094 207.757 401.379 209.36 407.747C211.186 400.021 219.99 391.349 228.649 387.88C233.682 405.987 226.547 430.164 213.919 419.481C213.048 418.795 212.251 418.02 211.541 417.169C212.855 423.594 213.959 430.099 214.76 436.642C217.52 429.166 227.335 421.636 236.349 419.271C239.122 437.904 229.03 461.175 217.822 448.902C217.042 448.099 216.346 447.219 215.746 446.274C216.28 452.861 216.539 459.484 216.521 466.142C220.2 459.007 230.87 452.726 240.173 451.49C240.607 470.451 227.637 492.527 218.085 478.809C217.403 477.916 216.821 476.951 216.35 475.931C216.052 482.475 215.479 489.045 214.629 495.641C214.673 495.846 214.668 496.06 214.613 496.262C214.557 496.465 214.454 496.652 214.312 496.807C214.17 496.962 213.993 497.08 213.795 497.152C213.598 497.225 213.386 497.248 213.177 497.221C212.969 497.195 212.77 497.118 212.597 496.999C212.424 496.879 212.282 496.72 212.184 496.534C212.085 496.348 212.033 496.141 212.031 495.931C212.028 495.721 212.077 495.513 212.172 495.325C213.555 484.617 214.196 473.825 214.09 463.027C213.576 464.011 212.945 464.929 212.211 465.76C201.476 477.337 191.489 456.878 188.914 442.831C198.191 442.266 209.767 446.353 213.788 453.343C213.446 446.773 212.842 440.282 211.948 433.83C211.571 434.863 211.063 435.843 210.437 436.747C201.239 449.48 188.756 430.624 184.486 417.037C193.684 415.329 205.602 417.905 210.463 424.33C209.316 417.927 207.906 411.584 206.232 405.303C205.979 406.371 205.595 407.404 205.089 408.378C197.521 422.109 182.83 405.054 176.917 392.137C185.773 389.299 197.941 390.376 203.591 396.079C201.673 389.877 199.483 383.767 197.021 377.749C196.905 378.836 196.653 379.904 196.272 380.929C190.451 395.488 173.777 380.416 166.287 368.301C174.723 364.359 186.969 363.952 193.263 368.971C190.583 363.049 187.652 357.246 184.473 351.561C184.481 352.69 184.344 353.817 184.065 354.911V354.911Z" fill="#2563EB"/>
<path opacity="0.7" d="M184.065 354.911C180.123 370.101 161.727 357.185 152.7 346.016C160.584 341.075 172.699 339.143 179.571 343.388C176.164 337.825 172.515 332.398 168.626 327.107C168.785 328.199 168.812 329.307 168.705 330.405C166.72 346.029 146.761 335.412 136.328 325.346C143.528 319.473 155.354 316.07 162.739 319.447C161.267 317.607 159.765 315.794 158.232 314.007C147.155 314.256 147.076 297.411 151.255 287.083C162.003 294.599 170.281 311.063 161.149 313.586C165.135 318.334 168.915 323.209 172.489 328.211C171.333 320.327 176.299 308.948 183.08 302.535C194.564 317.765 196.732 342.901 181.056 337.527C179.993 337.197 178.967 336.757 177.995 336.213C181.604 341.732 184.976 347.391 188.112 353.19C187.968 345.24 194.341 334.636 201.87 329.131C211.278 345.582 210.24 370.679 195.418 363.452C194.404 363.001 193.44 362.446 192.54 361.797C195.423 367.701 198.051 373.71 200.424 379.825C201.279 371.941 208.926 362.23 217.086 357.71C224.339 375.081 220.24 399.89 206.39 390.876C205.448 390.306 204.568 389.641 203.762 388.891C205.891 395.094 207.757 401.379 209.36 407.747C211.186 400.021 219.99 391.349 228.649 387.88C233.682 405.987 226.547 430.164 213.919 419.481C213.048 418.795 212.251 418.02 211.541 417.169C212.855 423.594 213.959 430.099 214.76 436.642C217.52 429.166 227.335 421.636 236.349 419.271C239.122 437.904 229.03 461.175 217.822 448.902C217.042 448.099 216.346 447.219 215.746 446.274C216.28 452.861 216.539 459.484 216.521 466.142C220.2 459.007 230.87 452.726 240.173 451.49C240.607 470.451 227.637 492.527 218.085 478.809C217.403 477.916 216.821 476.951 216.35 475.931C216.052 482.475 215.479 489.045 214.629 495.641C214.673 495.846 214.668 496.06 214.613 496.262C214.557 496.465 214.454 496.652 214.312 496.807C214.17 496.962 213.993 497.08 213.795 497.152C213.598 497.225 213.386 497.248 213.177 497.221C212.969 497.195 212.77 497.118 212.597 496.999C212.424 496.879 212.282 496.72 212.184 496.534C212.085 496.348 212.033 496.141 212.031 495.931C212.028 495.721 212.077 495.513 212.172 495.325C213.555 484.617 214.196 473.825 214.09 463.027C213.576 464.011 212.945 464.929 212.211 465.76C201.476 477.337 191.489 456.878 188.914 442.831C198.191 442.266 209.767 446.353 213.788 453.343C213.446 446.773 212.842 440.282 211.948 433.83C211.571 434.863 211.063 435.843 210.437 436.747C201.239 449.48 188.756 430.624 184.486 417.037C193.684 415.329 205.602 417.905 210.463 424.33C209.316 417.927 207.906 411.584 206.232 405.303C205.979 406.371 205.595 407.404 205.089 408.378C197.521 422.109 182.83 405.054 176.917 392.137C185.773 389.299 197.941 390.376 203.591 396.079C201.673 389.877 199.483 383.767 197.021 377.749C196.905 378.836 196.653 379.904 196.272 380.929C190.451 395.488 173.777 380.416 166.287 368.301C174.723 364.359 186.969 363.952 193.263 368.971C190.583 363.049 187.652 357.246 184.473 351.561C184.481 352.69 184.344 353.817 184.065 354.911V354.911Z" fill="white"/>
<path d="M471.503 541.67H453.33C414.913 541.826 377.366 530.23 345.727 508.439C326.844 495.299 312.877 480.017 319.828 465.931C336.765 431.649 373.872 496.587 388.432 478.138C402.991 459.69 322.009 438.718 335.491 417.563C348.972 396.408 408.155 465.931 425.066 434.934C441.977 403.937 344.991 407.695 358.486 384.687C371.98 361.679 433.935 412.859 449.388 394.069C464.841 375.278 370.482 364.95 391.572 344.294C412.662 323.638 460.137 395.948 483.158 380.929C506.179 365.91 397.209 336.542 434.776 322.81C472.344 309.079 501.081 362.887 519.832 358.748C538.582 354.609 479.4 324.965 495.838 315.61C512.276 306.254 543.825 313.954 565.02 342.731C589.408 375.949 598.829 412.373 582.391 427.418C565.953 442.463 558.148 392.742 541.775 399.824C507.02 414.764 574.415 444.355 564.113 465.524C553.812 486.693 519.437 425.618 500.016 434.067C463.619 449.835 570.539 488.611 550.737 500.043C527.965 513.183 474.183 455.196 456.681 475.392C430.545 505.614 526.783 492.671 523.958 517.939C521.132 543.208 471.503 541.67 471.503 541.67Z" fill="#2563EB"/>
<path opacity="0.4" d="M471.503 541.67H453.33C414.913 541.826 377.366 530.23 345.727 508.439C326.844 495.299 312.877 480.017 319.828 465.931C336.765 431.649 373.872 496.587 388.432 478.138C402.991 459.69 322.009 438.718 335.491 417.563C348.972 396.408 408.155 465.931 425.066 434.934C441.977 403.937 344.991 407.695 358.486 384.687C371.98 361.679 433.935 412.859 449.388 394.069C464.841 375.278 370.482 364.95 391.572 344.294C412.662 323.638 460.137 395.948 483.158 380.929C506.179 365.91 397.209 336.542 434.776 322.81C472.344 309.079 501.081 362.887 519.832 358.748C538.582 354.609 479.4 324.965 495.838 315.61C512.276 306.254 543.825 313.954 565.02 342.731C589.408 375.949 598.829 412.373 582.391 427.418C565.953 442.463 558.148 392.742 541.775 399.824C507.02 414.764 574.415 444.355 564.113 465.524C553.812 486.693 519.437 425.618 500.016 434.067C463.619 449.835 570.539 488.611 550.737 500.043C527.965 513.183 474.183 455.196 456.681 475.392C430.545 505.614 526.783 492.671 523.958 517.939C521.132 543.208 471.503 541.67 471.503 541.67Z" fill="white"/>
<path d="M490.267 391.336C486.325 403.963 505.299 402.873 516.704 398.852C513.235 391.835 505.404 385.068 498.611 385.055C503.516 382.567 508.536 380.294 513.669 378.235C513.064 378.947 512.552 379.733 512.145 380.574C506.652 392.65 525.653 393.872 537.597 391.283C535.048 383.885 528.07 376.211 521.277 375.357C523.143 374.687 525.035 374.043 526.927 373.439C534.811 378.537 542.275 366.501 543.852 357.237C532.827 357.868 519.582 366.002 525.022 371.862C520.055 373.491 515.184 375.309 510.41 377.315C514.733 372.151 516.218 361.81 514.195 354.215C499.215 360.049 486.522 377.105 500.135 380.193C501.041 380.437 501.97 380.583 502.907 380.626C497.862 382.992 492.938 385.554 488.138 388.313C491.751 382.676 491.883 372.256 488.926 364.977C474.919 372.559 464.499 391.02 478.349 392.426C479.276 392.553 480.214 392.584 481.147 392.518C476.47 395.479 471.919 398.62 467.495 401.94C470.373 395.908 469.19 385.554 465.34 378.708C452.463 387.906 444.408 407.537 458.323 407.222C459.258 407.231 460.191 407.147 461.109 406.972C456.825 410.467 452.699 414.16 448.731 418.01C450.847 411.663 448.389 401.545 443.712 395.225C432.083 405.96 426.485 426.459 440.269 424.396C441.199 424.291 442.115 424.088 443.002 423.791C439.191 427.812 435.547 431.991 432.07 436.327C433.384 429.757 429.691 419.994 424.278 414.304C414.042 426.433 410.967 447.588 424.422 443.764C425.329 443.542 426.21 443.225 427.05 442.818C423.748 447.303 420.629 451.933 417.694 456.707C418.207 449.979 413.345 440.742 407.274 435.762C398.563 449.152 398.076 470.727 411.006 465.13C411.889 464.778 412.734 464.337 413.529 463.816C410.84 468.634 408.343 473.583 406.039 478.664C405.95 478.792 405.89 478.938 405.863 479.092C405.837 479.246 405.844 479.404 405.885 479.554C405.927 479.705 406 479.844 406.102 479.963C406.203 480.082 406.329 480.177 406.471 480.242C406.613 480.307 406.768 480.339 406.924 480.338C407.08 480.336 407.234 480.3 407.374 480.232C407.515 480.164 407.639 480.066 407.737 479.945C407.836 479.824 407.907 479.683 407.945 479.531C411.696 471.238 416.02 463.216 420.887 455.524C420.816 456.455 420.86 457.391 421.019 458.31C423.581 471.371 439.809 461.135 447.877 452.2C441.478 447.68 431.373 445.486 425.381 448.744C428.517 444.198 431.833 439.818 435.328 435.604C435.153 436.513 435.086 437.439 435.131 438.364C436.09 451.582 453.383 443.62 462.449 435.736C456.668 430.48 446.931 426.998 440.597 429.455C444.259 425.373 448.078 421.431 452.056 417.629C451.771 418.507 451.59 419.415 451.517 420.336C450.86 433.476 468.954 427.825 478.914 421.177C473.829 415.224 464.591 410.586 458.021 412.228C462.147 408.641 466.431 405.225 470.833 401.979C470.436 402.816 470.145 403.699 469.965 404.607C467.692 417.616 486.312 414.199 497.06 408.825C492.75 402.255 484.157 396.552 477.429 397.354C481.975 394.375 486.644 391.537 491.436 388.839C490.951 389.623 490.558 390.461 490.267 391.336V391.336Z" fill="#2563EB"/>
<path opacity="0.7" d="M490.267 391.336C486.325 403.963 505.299 402.873 516.704 398.852C513.235 391.835 505.404 385.068 498.611 385.055C503.516 382.567 508.536 380.294 513.669 378.235C513.064 378.947 512.552 379.733 512.145 380.574C506.652 392.65 525.653 393.872 537.597 391.283C535.048 383.885 528.07 376.211 521.277 375.357C523.143 374.687 525.035 374.043 526.927 373.439C534.811 378.537 542.275 366.501 543.852 357.237C532.827 357.868 519.582 366.002 525.022 371.862C520.055 373.491 515.184 375.309 510.41 377.315C514.733 372.151 516.218 361.81 514.195 354.215C499.215 360.049 486.522 377.105 500.135 380.193C501.041 380.437 501.97 380.583 502.907 380.626C497.862 382.992 492.938 385.554 488.138 388.313C491.751 382.676 491.883 372.256 488.926 364.977C474.919 372.559 464.499 391.02 478.349 392.426C479.276 392.553 480.214 392.584 481.147 392.518C476.47 395.479 471.919 398.62 467.495 401.94C470.373 395.908 469.19 385.554 465.34 378.708C452.463 387.906 444.408 407.537 458.323 407.222C459.258 407.231 460.191 407.147 461.109 406.972C456.825 410.467 452.699 414.16 448.731 418.01C450.847 411.663 448.389 401.545 443.712 395.225C432.083 405.96 426.485 426.459 440.269 424.396C441.199 424.291 442.115 424.088 443.002 423.791C439.191 427.812 435.547 431.991 432.07 436.327C433.384 429.757 429.691 419.994 424.278 414.304C414.042 426.433 410.967 447.588 424.422 443.764C425.329 443.542 426.21 443.225 427.05 442.818C423.748 447.303 420.629 451.933 417.694 456.707C418.207 449.979 413.345 440.742 407.274 435.762C398.563 449.152 398.076 470.727 411.006 465.13C411.889 464.778 412.734 464.337 413.529 463.816C410.84 468.634 408.343 473.583 406.039 478.664C405.95 478.792 405.89 478.938 405.863 479.092C405.837 479.246 405.844 479.404 405.885 479.554C405.927 479.705 406 479.844 406.102 479.963C406.203 480.082 406.329 480.177 406.471 480.242C406.613 480.307 406.768 480.339 406.924 480.338C407.08 480.336 407.234 480.3 407.374 480.232C407.515 480.164 407.639 480.066 407.737 479.945C407.836 479.824 407.907 479.683 407.945 479.531C411.696 471.238 416.02 463.216 420.887 455.524C420.816 456.455 420.86 457.391 421.019 458.31C423.581 471.371 439.809 461.135 447.877 452.2C441.478 447.68 431.373 445.486 425.381 448.744C428.517 444.198 431.833 439.818 435.328 435.604C435.153 436.513 435.086 437.439 435.131 438.364C436.09 451.582 453.383 443.62 462.449 435.736C456.668 430.48 446.931 426.998 440.597 429.455C444.259 425.373 448.078 421.431 452.056 417.629C451.771 418.507 451.59 419.415 451.517 420.336C450.86 433.476 468.954 427.825 478.914 421.177C473.829 415.224 464.591 410.586 458.021 412.228C462.147 408.641 466.431 405.225 470.833 401.979C470.436 402.816 470.145 403.699 469.965 404.607C467.692 417.616 486.312 414.199 497.06 408.825C492.75 402.255 484.157 396.552 477.429 397.354C481.975 394.375 486.644 391.537 491.436 388.839C490.951 389.623 490.558 390.461 490.267 391.336V391.336Z" fill="white"/>
<path d="M422.727 417.602C409.823 364.622 373.899 520.738 343.23 451.372C305.558 366.146 228.15 337.593 248.845 402.82C269.541 468.047 241.934 490.648 166.878 417.602C112.452 364.635 197.599 523.445 164.946 517.466C137.352 512.355 98.5106 501.015 107.38 524.943C111.322 535.652 120.008 541.578 130.52 541.591L371.862 541.657C391.743 541.657 413.069 520.397 419.35 494.353C425.026 470.833 428.719 442.266 422.727 417.602Z" fill="#2563EB"/>
<g opacity="0.3">
<path d="M422.727 417.602C409.823 364.622 373.899 520.738 343.23 451.372C305.558 366.146 228.15 337.593 248.845 402.82C269.541 468.047 241.934 490.648 166.878 417.602C112.452 364.635 197.599 523.445 164.946 517.466C137.352 512.355 98.5106 501.015 107.38 524.943C111.322 535.652 120.008 541.578 130.52 541.591L371.862 541.657C391.743 541.657 413.069 520.397 419.35 494.353C425.026 470.833 428.719 442.266 422.727 417.602Z" fill="black"/>
</g>
<path d="M234.562 505.509C234.562 505.509 249.739 491.252 225.627 470.36C203.289 450.965 171.306 470.031 171.306 470.031C171.306 470.031 170.794 447.483 139.77 443.83C108.747 440.177 127.156 472.186 127.156 472.186C100.626 460.794 104.371 473.868 109.64 483.618C103.07 480.661 95.9483 479.676 92.5582 486.771C84.8319 502.881 103.951 513.879 103.951 513.879C103.951 513.879 86.7766 519.424 92.9787 532.144C94.5207 535.181 96.8831 537.726 99.798 539.488C102.713 541.251 106.063 542.162 109.469 542.117H229.648C251.342 542.117 255.56 511.225 234.615 505.522L234.562 505.509Z" fill="#2563EB"/>
<path opacity="0.3" d="M234.562 505.509C234.562 505.509 249.739 491.252 225.627 470.36C203.289 450.965 171.306 470.031 171.306 470.031C171.306 470.031 170.794 447.483 139.77 443.83C108.747 440.177 127.156 472.186 127.156 472.186C100.626 460.794 104.371 473.868 109.64 483.618C103.07 480.661 95.9483 479.676 92.5582 486.771C84.8319 502.881 103.951 513.879 103.951 513.879C103.951 513.879 86.7766 519.424 92.9787 532.144C94.5207 535.181 96.8831 537.726 99.798 539.488C102.713 541.251 106.063 542.162 109.469 542.117H229.648C251.342 542.117 255.56 511.225 234.615 505.522L234.562 505.509Z" fill="white"/>
<path d="M299.592 209.36L297.174 228.058C296.333 234.247 295.453 240.488 294.244 246.27L293.482 249.568C293.369 250.031 293.138 250.457 292.812 250.803C291.28 252.038 289.421 252.8 287.464 252.998C282.392 253.878 276.032 253.392 270.198 252.656L267.662 260.277C270.806 261.789 274.089 262.995 277.464 263.877C280.993 264.852 284.631 265.374 288.292 265.428C290.354 265.435 292.411 265.224 294.428 264.797C296.795 264.272 299.044 263.314 301.064 261.972C303.353 260.43 305.219 258.338 306.49 255.888C307.024 254.83 307.464 253.726 307.804 252.59C308.08 251.749 308.396 250.869 308.632 250.054C310.487 243.628 311.966 237.1 313.06 230.502C314.164 224.024 315.045 217.638 315.688 211.055L299.592 209.36Z" fill="#FFC3BD"/>
<path d="M322.206 196.312C327.462 204.603 315.741 234.588 315.741 234.588L293.403 227.821C294.729 218.968 296.998 210.281 300.17 201.909C305.111 189.86 316.464 187.219 322.206 196.312Z" fill="#263238"/>
<path d="M306.096 197.783C303.679 209.005 300.104 235.048 305.531 277.149L360.259 280.907C361.127 273.259 358.564 236.467 363.558 199.767C363.756 198.373 363.669 196.953 363.302 195.593C362.936 194.234 362.297 192.963 361.425 191.857C360.553 190.751 359.465 189.834 358.228 189.161C356.991 188.488 355.63 188.073 354.228 187.941C351.85 187.718 349.301 187.547 346.778 187.481C339.003 187.23 331.22 187.423 323.467 188.06C320.305 188.441 317.165 188.985 314.059 189.689C312.096 190.134 310.302 191.134 308.891 192.569C307.479 194.003 306.509 195.813 306.096 197.783Z" fill="#263238"/>
<path d="M343.821 161.333C342.507 168.875 341.417 182.646 346.778 187.521C346.778 187.521 343.953 195.208 330.024 195.549C317.292 195.865 323.454 188.099 323.454 188.099C331.772 185.905 331.404 179.703 329.801 173.908L343.821 161.333Z" fill="#FFC3BD"/>
<path opacity="0.2" d="M338.119 166.471L329.827 173.895C330.216 175.244 330.488 176.625 330.642 178.021C333.454 180.544 338.132 173.869 338.394 170.518C338.544 169.163 338.45 167.793 338.119 166.471V166.471Z" fill="black"/>
<path d="M346.239 186.982C348.473 185.379 354.399 186.01 359.773 187.061C362.545 187.606 365.014 189.167 366.696 191.437C368.378 193.707 369.152 196.523 368.866 199.334C367.21 216.048 364.215 249.66 365.292 264.114C356.764 272.602 340.51 275.336 340.51 275.336C340.51 275.336 331.995 197.284 346.239 186.982Z" fill="#2563EB"/>
<path d="M322.009 186.903C318.419 186.719 314.831 187.32 311.497 188.664C309.853 189.272 308.384 190.274 307.218 191.582C306.052 192.89 305.224 194.465 304.809 196.167C302.246 206.574 297.463 232.039 301.681 265.034C310.209 273.522 315.163 271.814 315.163 271.814C315.163 271.814 314.191 208.164 323.441 189.452C323.565 189.194 323.625 188.909 323.615 188.623C323.606 188.336 323.527 188.056 323.387 187.806C323.247 187.556 323.048 187.343 322.808 187.186C322.568 187.029 322.294 186.932 322.009 186.903V186.903Z" fill="#2563EB"/>
<path d="M272.668 253.444L265.954 250.054L267.544 261.617C267.544 261.617 273.483 264.324 275.703 258.569L272.668 253.444Z" fill="#FFC3BD"/>
<path d="M317.515 141.478C312.325 144.671 314.624 162.24 320.669 157.351C326.713 152.463 320.905 139.402 317.515 141.478Z" fill="#263238"/>
<path d="M344.439 150.033C344.071 160.203 344.36 166.168 339.367 171.516C331.838 179.545 319.197 175.196 316.516 165.117C314.112 156.051 315.137 140.94 324.978 136.656C327.144 135.701 329.517 135.315 331.873 135.536C334.229 135.756 336.49 136.576 338.44 137.916C340.39 139.257 341.965 141.074 343.015 143.194C344.065 145.315 344.555 147.669 344.439 150.033V150.033Z" fill="#FFC3BD"/>
<path d="M338.21 150.322C338.759 151.988 339.705 153.497 340.966 154.717C342.228 155.937 343.767 156.832 345.451 157.325C349.485 151.294 351.048 148.81 347.343 144.579C349.393 140.427 328.25 130.848 319.749 135.381C311.247 139.915 316.332 144.382 320.13 145.381C323.432 145.959 326.813 145.923 330.103 145.276C331.833 145.018 333.599 145.384 335.084 146.308C336.569 147.233 337.678 148.655 338.21 150.322V150.322Z" fill="#263238"/>
<path d="M350.181 158.258C349.175 160.597 347.286 162.443 344.925 163.396C341.758 164.618 339.853 161.872 340.457 158.718C341.009 155.88 343.309 151.82 346.607 151.938C349.905 152.056 351.403 155.367 350.181 158.258Z" fill="#FFC3BD"/>
<path d="M305.531 277.149C305.531 277.149 279.527 357.119 273.233 387.775C266.663 419.665 249.082 517.939 249.082 517.939L264.574 523.984C264.574 523.984 294.796 428.43 303.074 397.577C312.101 363.978 341.509 279.619 341.509 279.619L305.531 277.149Z" fill="#263238"/>
<path opacity="0.3" d="M329.683 284.849L333.178 303.81C327.606 320.156 320.143 342.31 313.757 362.257C315.095 335.794 320.465 309.691 329.683 284.849V284.849Z" fill="black"/>
<path d="M324.952 278.489C324.952 278.489 323.848 362.427 328.211 392.163C332.994 424.711 360.969 522.591 360.969 522.591H379.746C379.746 522.591 360.496 429.205 358.722 397.17C356.764 362.414 360.272 280.907 360.272 280.907L324.952 278.489Z" fill="#263238"/>
<path d="M316.937 185.747C316.937 185.747 311.681 229.989 362.375 284.849V290.617C362.375 290.617 340.641 276.058 324.821 241.356C307.397 203.092 312.417 187.902 312.417 187.902L316.937 185.747Z" fill="#2563EB"/>
<path opacity="0.3" d="M316.937 185.747C316.937 185.747 311.681 229.989 362.375 284.849V290.617C362.375 290.617 340.641 276.058 324.821 241.356C307.397 203.092 312.417 187.902 312.417 187.902L316.937 185.747Z" fill="black"/>
<path d="M363.308 280.211C366.79 280.67 368.288 284.639 369.208 290.512C370.128 296.386 373.728 303.56 362.822 307.752C351.915 311.944 348.828 306.964 347.921 299.723C347.014 292.483 340.615 277.254 363.308 280.211Z" fill="#2563EB"/>
<path opacity="0.3" d="M348.105 287.595C348.105 287.595 354.478 293.403 361.521 292.26C368.564 291.117 368.222 287.096 368.222 287.096C368.222 287.096 370.272 292.076 362.033 294.021C353.795 295.965 348.105 287.595 348.105 287.595Z" fill="black"/>
<path opacity="0.3" d="M363.321 290.249C362.915 290.249 362.585 289.514 362.585 288.607C362.585 287.7 362.915 286.964 363.321 286.964C363.727 286.964 364.057 287.7 364.057 288.607C364.057 289.514 363.727 290.249 363.321 290.249Z" fill="black"/>
<path d="M249.082 198.388L270.277 207.717L298.791 203.591L327.633 194.078L341.443 254.509L354.084 311.589L320.327 312.22L284.612 310.327L269.107 301.852L267.478 251.565L249.082 198.388Z" fill="#2563EB"/>
<path opacity="0.9" d="M249.082 198.388L270.277 207.717L298.791 203.591L327.633 194.078L341.443 254.509L354.084 311.589L320.327 312.22L284.612 310.327L269.107 301.852L267.478 251.565L249.082 198.388Z" fill="white"/>
<path d="M321.956 196.706L340.589 253.589L313.928 259.765L293.495 207.323L321.956 196.706Z" fill="#2563EB"/>
<path d="M265.165 212.539L284.179 262.104L313.928 259.765L293.495 207.323L265.165 212.539Z" fill="#2563EB"/>
<path opacity="0.1" d="M265.165 212.539L284.179 262.104L313.928 259.765L293.495 207.323L265.165 212.539Z" fill="black"/>
<path d="M265.165 212.539L284.179 262.104L264.048 256.466L243.616 204.038L265.165 212.539Z" fill="#2563EB"/>
<path opacity="0.2" d="M265.165 212.539L284.179 262.104L264.048 256.466L243.616 204.038L265.165 212.539Z" fill="black"/>
<path d="M349.511 313.271L340.589 253.589L313.928 259.765L319.184 315.045L349.511 313.271Z" fill="#2563EB"/>
<path d="M283.43 314.519L284.179 262.104L313.928 259.765L319.184 315.045L283.43 314.519Z" fill="#2563EB"/>
<path opacity="0.1" d="M283.43 314.519L284.179 262.104L313.928 259.765L319.184 315.045L283.43 314.519Z" fill="white"/>
<path d="M283.43 314.519L284.179 262.104L264.048 256.467L265.967 297.95L283.43 314.519Z" fill="#2563EB"/>
<path d="M329.104 153.252C329.104 154.08 328.71 154.75 328.172 154.763C327.633 154.776 327.173 154.119 327.147 153.291C327.12 152.463 327.554 151.793 328.093 151.78C328.631 151.767 329.091 152.424 329.104 153.252Z" fill="#263238"/>
<path d="M319.762 153.475C319.762 154.303 319.355 154.986 318.816 154.999C318.277 155.013 317.83 154.356 317.804 153.528C317.778 152.7 318.211 152.017 318.75 152.003C319.289 151.99 319.736 152.647 319.762 153.475Z" fill="#263238"/>
<path d="M322.745 153.817C321.822 156.37 320.553 158.784 318.974 160.991C319.545 161.377 320.193 161.634 320.874 161.746C321.554 161.857 322.251 161.819 322.916 161.635L322.745 153.817Z" fill="#ED847E"/>
<path d="M325.399 163.856C325.362 163.864 325.324 163.865 325.288 163.856C325.251 163.848 325.216 163.832 325.187 163.808C325.157 163.785 325.134 163.755 325.117 163.721C325.101 163.688 325.092 163.65 325.092 163.613C325.092 163.575 325.101 163.538 325.117 163.504C325.134 163.47 325.157 163.441 325.187 163.417C325.216 163.394 325.251 163.377 325.288 163.369C325.324 163.361 325.362 163.361 325.399 163.37C326.419 163.37 327.425 163.132 328.337 162.676C329.249 162.22 330.043 161.558 330.655 160.742C330.671 160.715 330.693 160.691 330.718 160.673C330.743 160.654 330.772 160.641 330.803 160.633C330.833 160.626 330.865 160.625 330.896 160.63C330.927 160.635 330.957 160.646 330.983 160.663C331.012 160.678 331.037 160.698 331.057 160.723C331.076 160.749 331.09 160.778 331.098 160.809C331.105 160.84 331.106 160.873 331.1 160.904C331.094 160.936 331.081 160.965 331.062 160.991C330.417 161.887 329.565 162.615 328.58 163.114C327.594 163.612 326.503 163.867 325.399 163.856V163.856Z" fill="#263238"/>
<path d="M331.851 150.164C331.775 150.166 331.7 150.15 331.632 150.118C331.563 150.087 331.503 150.039 331.456 149.98C331.092 149.49 330.616 149.094 330.067 148.827C329.518 148.559 328.913 148.427 328.303 148.443C328.175 148.45 328.048 148.408 327.951 148.325C327.853 148.241 327.791 148.124 327.777 147.996C327.766 147.869 327.806 147.743 327.887 147.644C327.968 147.546 328.084 147.484 328.211 147.47C328.983 147.443 329.75 147.601 330.448 147.933C331.145 148.265 331.753 148.759 332.219 149.376C332.258 149.426 332.288 149.483 332.305 149.544C332.323 149.606 332.328 149.67 332.321 149.734C332.313 149.797 332.294 149.858 332.263 149.914C332.232 149.97 332.19 150.019 332.14 150.059C332.058 150.126 331.956 150.163 331.851 150.164V150.164Z" fill="#263238"/>
<path d="M315.478 150.269C315.409 150.281 315.338 150.281 315.268 150.269C315.157 150.205 315.075 150.102 315.039 149.98C315.002 149.858 315.014 149.726 315.071 149.612C315.415 148.917 315.922 148.315 316.549 147.857C317.176 147.4 317.904 147.1 318.671 146.984C318.735 146.979 318.799 146.986 318.861 147.005C318.922 147.025 318.978 147.057 319.027 147.098C319.076 147.14 319.116 147.19 319.145 147.247C319.174 147.305 319.192 147.367 319.197 147.431C319.204 147.559 319.162 147.685 319.079 147.783C318.996 147.881 318.878 147.943 318.75 147.956V147.956C318.148 148.054 317.579 148.293 317.088 148.654C316.596 149.015 316.198 149.488 315.925 150.033C315.881 150.11 315.815 150.174 315.736 150.215C315.657 150.257 315.567 150.276 315.478 150.269V150.269Z" fill="#263238"/>
<path d="M359.418 207.77L365.292 227.703C366.251 231.027 367.132 234.339 368.012 237.624C368.892 240.909 369.615 244.194 370.18 247.282L370.522 249.332C370.522 249.515 370.587 249.581 370.627 249.607C370.666 249.634 370.785 249.897 370.233 250.475C369.459 251.208 368.571 251.812 367.605 252.262C366.309 252.892 364.964 253.415 363.584 253.825C357.213 255.579 350.687 256.71 344.097 257.202L343.558 265.218C347.238 265.902 350.962 266.314 354.701 266.453C358.55 266.627 362.408 266.451 366.225 265.927C368.301 265.622 370.349 265.147 372.348 264.508C374.705 263.786 376.926 262.675 378.918 261.223C380.138 260.323 381.226 259.257 382.151 258.056C383.195 256.705 383.991 255.179 384.503 253.549C384.992 251.945 385.214 250.272 385.16 248.596V248.031V247.65V246.901L385.041 245.39C384.193 238.041 382.85 230.758 381.021 223.59C379.286 216.574 377.341 209.754 375.068 202.855L359.418 207.77Z" fill="#FFC3BD"/>
<path d="M365.949 191.121C375.541 193.197 384.345 227.493 384.345 227.493L363.229 237.584C363.229 237.584 355.345 221.015 351.771 208.873C347.96 196.141 355.673 188.901 365.949 191.121Z" fill="#263238"/>
<path d="M347.79 258.122L340.641 251.447L337.921 263.089C337.921 263.089 344.36 268.713 349.563 264.508L347.79 258.122Z" fill="#FFC3BD"/>
<path d="M331.378 250.356L329.433 261.013L337.921 263.089L340.641 251.447L331.378 250.356Z" fill="#FFC3BD"/>
<path d="M261.381 537.006L243.668 531.171L251.355 495.26C251.411 495.056 251.507 494.866 251.638 494.7C251.768 494.534 251.931 494.396 252.116 494.294C252.301 494.193 252.505 494.129 252.715 494.108C252.925 494.086 253.137 494.107 253.339 494.169L273.049 500.306C273.252 500.369 273.44 500.473 273.601 500.611C273.762 500.749 273.894 500.918 273.989 501.108C274.083 501.299 274.138 501.506 274.151 501.718C274.163 501.93 274.133 502.142 274.061 502.342L261.381 537.006Z" fill="#2563EB"/>
<path d="M382.229 535.402L363.978 537.925L353.308 502.132C353.259 501.897 353.26 501.655 353.312 501.421C353.363 501.187 353.463 500.966 353.606 500.774C353.749 500.581 353.931 500.421 354.14 500.304C354.349 500.187 354.581 500.116 354.819 500.095L376.632 498.216C376.995 498.179 377.359 498.287 377.644 498.515C377.929 498.744 378.113 499.075 378.156 499.438L382.229 535.402Z" fill="#2563EB"/>
<path d="M365.502 530.054L381.27 532.157C381.519 532.154 381.76 532.242 381.948 532.404C382.137 532.566 382.26 532.791 382.295 533.037L383.964 544.364C383.989 544.649 383.955 544.936 383.864 545.207C383.773 545.478 383.626 545.727 383.433 545.938C383.24 546.149 383.006 546.318 382.744 546.434C382.483 546.55 382.2 546.61 381.914 546.611C376.868 546.729 374.214 546.519 367.854 546.519C363.912 546.519 352.572 547.307 347.211 546.926C341.85 546.545 341.955 541.237 344.163 540.908C354.294 539.476 359.826 533.287 363.374 530.698C363.987 530.243 364.739 530.015 365.502 530.054Z" fill="#2563EB"/>
<path d="M249.66 523.747L262.8 528.451C263.041 528.536 263.245 528.702 263.379 528.919C263.513 529.137 263.569 529.394 263.536 529.647L261.039 543.759C261.005 544.039 260.908 544.307 260.756 544.543C260.604 544.78 260.4 544.979 260.16 545.125C259.919 545.272 259.649 545.362 259.369 545.39C259.089 545.417 258.807 545.381 258.543 545.284C253.825 543.497 247.071 540.764 241.119 538.635C234.142 536.138 231.777 535.586 223.603 532.669C218.663 530.895 219.07 525.403 221.304 525.692C231.461 527.006 236.481 525.758 246.428 523.655C247.492 523.383 248.612 523.415 249.66 523.747V523.747Z" fill="#2563EB"/>
<path d="M259.462 252.498L261.276 262.879L267.544 261.617L265.954 250.054L259.462 252.498Z" fill="#FFC3BD"/>
<path d="M308.58 136.472C308.356 137.274 318.974 140.966 332.298 144.698C345.621 148.429 356.607 150.808 356.843 149.954C357.08 149.1 346.449 145.46 333.112 141.728C319.775 137.996 308.79 135.657 308.58 136.472Z" fill="#263238"/>
<path d="M337.186 127.287C344.807 129.429 349.471 136.603 347.579 143.318L319.985 135.565C321.838 128.851 329.551 125.145 337.186 127.287Z" fill="#2563EB"/>
<path d="M348.368 143.791C348.75 142.035 348.723 140.214 348.289 138.469C343.913 137.247 333.94 135.841 330.471 138.036C338.881 141.071 348.368 143.791 348.368 143.791Z" fill="#263238"/>
<path d="M319.42 135.027C320.216 132.559 321.823 130.434 323.98 128.995C328.25 130.572 339.38 135.973 340.747 141.807C332.153 139.284 319.42 135.027 319.42 135.027Z" fill="#263238"/>
<path d="M334.255 137.707C356.015 143.817 357.066 149.205 356.843 150.006C357.066 149.205 346.449 145.512 333.112 141.781C319.775 138.049 308.803 135.657 308.58 136.525C308.79 135.657 312.495 131.61 334.255 137.707Z" fill="#2563EB"/>
</svg>
