<svg width="128" height="128" viewBox="0 0 128 128" fill="none" xmlns="http://www.w3.org/2000/svg">
<mask id="mask0_2_30" style="mask-type:alpha" maskUnits="userSpaceOnUse" x="0" y="0" width="128" height="128">
<path d="M128 0H0V128H128V0Z" fill="white"/>
</mask>
<g mask="url(#mask0_2_30)">
<path d="M58 122C76.3017 129.68 99.4463 111.78 97.9066 93C96.9885 81.8004 86.9152 73.3003 79 66.4244C73.8462 61.9473 63.5345 54.6303 63.4383 47C63.2213 29.7893 78.4909 47.7985 83.0008 50.5972C85.2931 52.0198 92.0668 54.8542 92.2924 49.8519C92.8879 36.6482 78.3141 20.3827 66 18.3256C56.4483 16.73 43.3078 20.4311 40.4336 31C35.008 50.9513 65.985 67.8543 76.8264 80C86.3883 90.7123 89.0054 100.62 76.9992 110.674C71.2333 115.503 64.2801 118.036 58 122ZM37 54C38.4654 70.7839 50.1676 78.9341 59.9043 91C62.4766 94 .1876 67.1767 105.738 72.6829 101.377C77.7263 97.3826 72.7407 90.5222 69.9043 87C60.4204 75.223 48.1181 64.279 37 54ZM51 101C50.331 98.6181 49.6042 96.9441 47.8519 95.0895C36.4039 82.9738 25.6378 105.341 43.9985 102.7C46.3799 102.357 48.6897 101.649 51 101Z" fill="#2563eb"/>
</g>
</svg>
