<svg version="1.1" id="Layer_1" xmlns="http://www.w3.org/2000/svg" xmlns:xlink="http://www.w3.org/1999/xlink" x="0px" y="0px" viewBox="0 0 360 288" style="enable-background:new 0 0 360 288;" xml:space="preserve">
<path xmlns="http://www.w3.org/2000/svg" style="fill:#084971;" d="M-20.73,17.86C-1.63-1.87,84.73-12.53,88.58-13l64.31,2.9l-32.73-1.48l32.76,1.47  c-0.91,0.13-107.74,15.45-59.8,42.8c23.31,13.29,53.28,26.76,85.01,41.01c130.94,58.81,283.63,127.38,81.93,278.14L-41.9,272.58  c203.36-82.86,154.67-128.05,71.31-192.84C9.43,64.21-9.27,49.68-21.13,35.31C-26.6,28.69-25.6,22.89-20.73,17.86z"/>
<g xmlns="http://www.w3.org/2000/svg">
	<linearGradient id="SVGID_1_" gradientUnits="userSpaceOnUse" x1="190.8881" y1="94.2458" x2="190.8881" y2="-16.2232">
		<stop offset="0" style="stop-color:#FFFFFF"/>
		<stop offset="0.297" style="stop-color:#FBFDFD"/>
		<stop offset="0.5773" style="stop-color:#F0F6F7"/>
		<stop offset="0.85" style="stop-color:#DDECED"/>
		<stop offset="1" style="stop-color:#CFE4E6"/>
	</linearGradient>
	<path style="fill:url(#SVGID_1_);" d="M63.18,18C65.05,9.09,81.94,2.37,97.31-1.98c21.64-6.12,47.25-9.61,47.49-9.65l2.17,0.1   C146.01-11.4,30.92,4.52,78.64,33.94c22.38,13.8,51.56,27.77,82.58,42.62c127.1,60.84,245.73,117.64,65.55,233.08l-10.8-2.62   c181.05-113.29,65.01-169.68-59.64-230.26c-30.65-14.89-59.46-28.9-81.47-42.74C65.24,27.99,62.21,22.64,63.18,18z"/>
</g>
<g xmlns="http://www.w3.org/2000/svg">
	<linearGradient id="SVGID_2_" gradientUnits="userSpaceOnUse" x1="51.9046" y1="94.2458" x2="51.9046" y2="-16.2232">
		<stop offset="0" style="stop-color:#FFFFFF"/>
		<stop offset="0.297" style="stop-color:#FBFDFD"/>
		<stop offset="0.5773" style="stop-color:#F0F6F7"/>
		<stop offset="0.85" style="stop-color:#DDECED"/>
		<stop offset="1" style="stop-color:#CFE4E6"/>
	</linearGradient>
	<path style="fill:url(#SVGID_2_);" d="M-7.01,18C0.51,9.09,21.65,2.37,39.78-1.98c25.52-6.12,53.34-9.61,53.6-9.65l2.11,0.1   C94.43-11.4-30.73,4.52-1.65,33.94c13.64,13.8,33.97,27.77,55.59,42.62c88.56,60.84,171.23,117.63-82.08,233.08l-9.15-2.62   C215.52,193.73,135.2,137.35,48.92,76.77C27.7,61.87,7.76,47.87-5.49,34.03C-11.27,27.99-10.92,22.64-7.01,18z"/>
</g>
<g xmlns="http://www.w3.org/2000/svg">
	<g>
		<linearGradient id="SVGID_3_" gradientUnits="userSpaceOnUse" x1="117.5513" y1="94.2465" x2="117.5513" y2="-16.2231">
			<stop offset="0" style="stop-color:#FFFFFF"/>
			<stop offset="0.297" style="stop-color:#FBFDFD"/>
			<stop offset="0.5773" style="stop-color:#F0F6F7"/>
			<stop offset="0.85" style="stop-color:#DDECED"/>
			<stop offset="1" style="stop-color:#CFE4E6"/>
		</linearGradient>
		<path style="fill:url(#SVGID_3_);" d="M113.86-10.89c3.23-0.48,5.21-0.73,5.23-0.74l2.14,0.1c-0.02,0-1.96,0.26-5.15,0.73    L113.86-10.89z"/>
	</g>
	<g>
		<linearGradient id="SVGID_4_" gradientUnits="userSpaceOnUse" x1="127.8332" y1="94.2459" x2="127.8332" y2="-16.2232">
			<stop offset="0" style="stop-color:#FFFFFF"/>
			<stop offset="0.297" style="stop-color:#FBFDFD"/>
			<stop offset="0.5773" style="stop-color:#F0F6F7"/>
			<stop offset="0.85" style="stop-color:#DDECED"/>
			<stop offset="1" style="stop-color:#CFE4E6"/>
		</linearGradient>
		<path style="fill:url(#SVGID_4_);" d="M27.98,17.98l3.36,0c-0.51,1.04-0.83,2.12-0.92,3.2l-3.46,0.02    C27.08,20.11,27.43,19.03,27.98,17.98z M30.17,14.94c0.89-0.97,1.98-1.93,3.24-2.87l3.16,0.02c-1.22,0.94-2.28,1.9-3.14,2.86    L30.17,14.94z M27.23,24.6l3.56-0.03c0.36,1.17,0.98,2.37,1.83,3.58l-3.67,0.05C28.14,26.98,27.56,25.77,27.23,24.6z M37.58,9.35    c1.51-0.86,3.19-1.73,5-2.57l2.97,0.04c-1.78,0.84-3.43,1.7-4.91,2.56L37.58,9.35z M32.3,32l3.76-0.07    c0.73,0.66,1.54,1.34,2.44,2.02c0.86,0.66,1.73,1.32,2.63,1.98l-3.86,0.09c-0.88-0.66-1.73-1.32-2.57-1.98    C33.81,33.34,33.01,32.66,32.3,32z M48.33,4.36c1.99-0.77,4.15-1.54,6.4-2.29l2.78,0.06c-2.22,0.75-4.35,1.52-6.31,2.29    L48.33,4.36z M43.07,40.28l3.98-0.1c2.17,1.51,4.41,3.02,6.71,4.54l-4.1,0.12C47.4,43.31,45.2,41.79,43.07,40.28z M61.72-0.11    c2.4-0.7,4.93-1.39,7.53-2.05l2.62,0.07c-2.57,0.67-5.07,1.36-7.44,2.05L61.72-0.11z M57.07,49.69l4.23-0.13    c2.75,1.72,5.56,3.45,8.44,5.19l-4.37,0.14C62.54,53.15,59.77,51.42,57.07,49.69z M77.26-4.11c2.72-0.62,5.57-1.24,8.47-1.84    l2.46,0.08c-2.87,0.6-5.69,1.21-8.39,1.84L77.26-4.11z M74.61,60.48l4.52-0.16c3.4,1.99,6.87,3.99,10.38,6l-4.68,0.18    C81.38,64.49,77.97,62.48,74.61,60.48z M96.07,73l4.86-0.19l12.46,7.03l-5.05,0.21L96.07,73z M94.63-7.69    c3.07-0.57,6.22-1.12,9.36-1.65l2.3,0.08c-3.11,0.52-6.23,1.08-9.28,1.64L94.63-7.69z M121.61,87.73l5.26-0.22    c4.85,2.78,9.68,5.58,14.44,8.39l-5.5,0.24C131.14,93.32,126.39,90.52,121.61,87.73z M165.33,261.25    c12.67-9.25,23.08-18.2,31.1-26.62l9.65,1.1c-7.9,8.59-18.21,17.72-30.82,27.16L165.33,261.25z M150.77,105.38l5.77-0.25    c5.69,3.55,10.85,6.91,15.74,10.24l-6.1,0.24C161.4,112.29,156.35,108.93,150.77,105.38z M213.95,210.78    c3.66-7.21,5.68-14.35,6.12-21.21l8.64,0.31c-0.23,6.96-2.07,14.21-5.55,21.55L213.95,210.78z M181.59,127.05l6.47-0.22    c5.54,4.32,10.61,8.65,15.01,12.87l-6.92,0.17C191.89,135.67,186.98,131.35,181.59,127.05z M208.68,154.37l7.45-0.09    c4.07,5.5,7.2,11,9.33,16.63l-8.03-0.07C215.48,165.27,212.55,159.82,208.68,154.37z"/>
	</g>
	<g>
		<linearGradient id="SVGID_5_" gradientUnits="userSpaceOnUse" x1="108.9653" y1="94.247" x2="108.9653" y2="-16.2219">
			<stop offset="0" style="stop-color:#FFFFFF"/>
			<stop offset="0.297" style="stop-color:#FBFDFD"/>
			<stop offset="0.5773" style="stop-color:#F0F6F7"/>
			<stop offset="0.85" style="stop-color:#DDECED"/>
			<stop offset="1" style="stop-color:#CFE4E6"/>
		</linearGradient>
		<path style="fill:url(#SVGID_5_);" d="M89.34,307.03c10.5-5.48,20.32-10.85,29.24-15.95l10.01,2.27    c-8.92,5.21-18.75,10.69-29.27,16.29L89.34,307.03z"/>
	</g>
</g>
<g xmlns="http://www.w3.org/2000/svg">
	<polygon style="fill:#0E538D;" points="85.66,120.96 84.91,120.98 98.38,127.62 107.5,128.25 114.92,130.53 126.88,138.63    120.43,143.97 137.04,144.71 159.07,145.97 184.81,146.34 204.9,143.11 203.91,141.31 225.57,138.47 253.32,130.77 239.1,123.69    249.41,121.24 259.67,118.72 249.5,114.12 241.36,110.78 238.63,107.35 231.11,105.8 222.63,103.85 226.03,102.89 206.94,100.05    186.69,99.12 187.31,100.04 176.29,101.29 167.42,102.37 144.78,102.1 149.68,104.45 142.42,106.14 138.27,108 111.59,110.44    102.96,111.35 113.15,117.72 101.4,119.27 85.66,120.96  "/>
	<polygon style="fill:#0C4871;" points="249.5,116.99 241.36,113.64 238.63,110.22 231.11,108.67 222.63,106.72 222.68,105.26    206.94,102.92 186.69,101.99 187.31,102.91 176.29,104.16 167.42,105.24 149.68,105.03 149.19,107.43 142.42,109.01 138.27,110.87    111.59,113.31 106.88,113.8 113.15,117.72 113.15,118.62 113.15,120.59 101.4,122.14 89.8,123.39 98.38,127.62 107.5,128.25    114.92,130.53 126.88,138.63 126.92,140.05 126.88,141.5 123.72,144.12 137.04,144.71 159.07,145.97 184.81,146.34 203.8,143.28    203.91,141.31 225.57,138.47 249.62,131.8 239.1,126.55 239.1,125.12 239.1,123.69 249.41,121.24 255.56,119.73  "/>
	<polygon style="fill:#1d4ed8;" points="249.5,117.87 241.36,114.52 238.63,111.1 231.11,109.54 222.63,107.6 222.66,106.73    222.63,106.72 222.65,106.13 206.94,103.79 187.3,102.89 187.31,102.91 187.3,103.33 187.31,103.78 176.29,105.04 167.42,106.11    149.68,105.9 149.19,108.31 142.42,109.89 138.27,111.75 111.59,114.19 108.08,114.55 113.15,117.72 113.15,118.6 113.15,118.62    113.15,119.5 113.15,120.59 113.15,121.47 101.4,123.02 91.26,124.11 98.38,127.62 107.5,128.25 114.92,130.53 126.88,138.63    126.92,140.05 126.91,140.5 126.92,140.93 126.88,142.38 124.73,144.16 137.04,144.71 159.07,145.97 184.81,146.34 203.8,143.28    203.91,141.31 225.57,138.47 248.49,132.11 239.1,127.43 239.1,126.56 239.1,126.55 239.1,125.56 239.1,124.56 239.1,124.56    239.1,123.69 249.41,121.24 254.3,120.04  "/>
	<g>
		<polygon style="fill:#E2A144;" points="141.55,144.97 140.54,140.82 140.42,143.49 136.4,144.63 135.65,142.02 134.8,139.65     134.02,136.47 132.29,142.83 132.06,144.49 137.04,144.71   "/>
		<polygon style="fill:#E2A144;" points="164.65,146.05 163.44,143.49 161.31,142.48 159.35,139.94 157.04,140.61 155.67,140.11     153.2,128.19 152.39,136.48 151.76,139.48 150.92,138.56 148.38,140.85 146.73,134.98 145.97,141.82 145.89,145.22 159.07,145.97       "/>
		<polygon style="fill:#E2A144;" points="124.78,144.12 124.79,144.16 128.83,144.34 129.08,142.96 128.63,132.11 126.47,125.92     125.5,134.82 124.95,137.2 124.91,137.3 126.88,138.63 126.92,140.05 126.91,140.5 126.92,140.93 126.88,142.38   "/>
		<polygon style="fill:#E2A144;" points="177.93,146.24 176,138.61 175.45,134.07 175.28,133.45 174.05,132.18 173.82,131.41     173.71,136.35 173.78,143.68 173.71,146.18   "/>
		<polygon style="fill:#E2A144;" points="254.3,120.04 249.5,117.87 241.36,114.52 238.63,111.1 231.11,109.54 222.63,107.6     222.66,106.73 222.63,106.72 222.65,106.13 206.94,103.79 187.3,102.89 187.31,102.91 187.3,103.33 187.31,103.78 176.29,105.04     167.42,106.11 153.82,105.95 154.79,111.66 156.65,111.76 158.2,111.5 158.49,112.55 158.38,118.2 158.9,128.08 159.27,132.55     159.63,130.43 161.57,122.23 162.32,117.42 163.06,114.71 166.17,123.14 167.05,119.66 167.23,112.94 167.74,109.07     168.83,109.29 170.93,109.21 173.7,109.84 174.2,115.35 175.29,117.46 175.58,123.95 176.47,121.18 177.11,116.58 176.92,109.08     182.13,107.53 184.2,112.08 184.86,110.23 186.02,114.08 186.99,118.29 187.98,108.16 188.04,106.21 193.21,105.73 193.39,121.63     194.5,129.05 196.33,121.26 196.95,117.14 197.34,116.11 198.16,119.74 201.89,118.22 201.78,114.02 201.1,110.81 200.2,108.72     199.86,108.15 203.46,106.67 204.29,108.25 206.44,112.12 205.84,114.01 204.83,116.47 204.79,122.44 204.82,124.93     206.14,126.98 207.45,129.41 211.53,127.57 211.27,119.61 211.49,110.73 216.22,109.97 217.61,111.45 220.14,111.23     221.81,109.95 221.82,110.81 221.28,117.16 221.8,130.68 223.93,125.13 225.82,127.16 228.44,120.07 228.53,117.88 228.38,114.16     232.97,113.89 233.42,118.24 235.94,118.36 235.98,120.69 236.36,123.05 235.9,127.33 235.57,131.56 236.19,135.53 248.49,132.11     239.1,127.43 239.1,126.56 239.1,126.55 239.1,125.56 239.1,124.56 239.1,124.56 239.1,123.69 249.41,121.24   "/>
		<polygon style="fill:#E2A144;" points="114.29,117.6 116.35,116.95 118.91,116.68 120.18,116.06 122.85,117.01 125.21,119.3     127.42,120.54 129.05,116.39 131.98,116.13 134.94,115.97 137.16,116.23 137.49,118.79 137.86,124.78 139.85,135.79 140.54,125.1     140.91,116.34 140.95,115.16 142.53,113.6 145.33,115.17 146.62,117.85 146.55,122.6 147.52,128.24 147.98,131.19 148.26,120.24     149.25,108.04 149.19,108.31 142.42,109.89 138.27,111.75 111.59,114.19 108.08,114.55 113.15,117.72 113.15,118.6 113.15,118.62     113.15,119.5 113.15,120.59 113.15,121.47 101.4,123.02 91.26,124.11 98.38,127.62 107.5,128.25 113.67,130.15 113.39,123.24     113.43,119.24   "/>
		<polygon style="fill:#E2A144;" points="225.34,138.13 223.27,135.53 223.5,138.74 225.57,138.47 225.85,138.39   "/>
		<polygon style="fill:#E2A144;" points="190.17,145.47 188.95,140.23 188.39,136 188.22,131.25 186.42,125.81 184.25,123.43     183.21,119.25 182.33,122.69 182.75,124.67 184.4,130.1 184.32,143.09 184.11,145.96 184.16,146.33 184.81,146.34   "/>
		<polygon style="fill:#E2A144;" points="232.72,136.49 232.22,133 230.67,137.06   "/>
		<polygon style="fill:#E2A144;" points="221.9,138.95 221.27,138.66 218.92,137.87 218.41,134.06 216.24,125.62 216.59,134.47     216.35,139.68   "/>
		<polygon style="fill:#E2A144;" points="201.59,130.94 201.19,135.9 200.29,136.33 197.97,136.87 195.95,135.26 195.12,140.95     194.81,144.73 203.8,143.28 203.91,141.31 206.23,141.01 205.92,138.39 204.52,136.1 203.82,133.39 203.83,131.56   "/>
	</g>
</g>
<g xmlns="http://www.w3.org/2000/svg">
	<path style="fill:#ACD6EF;" d="M190.09,159.25c0,4.19,3.03,7.59,6.77,7.59s6.77-3.4,6.77-7.59c0-4.19-3.03-7.59-6.77-7.59   c-0.57,0-3.18-0.14-3.71,0.01C190.21,152.5,190.09,155.7,190.09,159.25z"/>
	<ellipse style="fill:#CCE9FF;" cx="193.54" cy="159.25" rx="6.77" ry="7.59"/>
	<ellipse style="fill:#EA3624;" cx="193.21" cy="158.98" rx="5.5" ry="5.74"/>
	<path style="fill:#E85F54;" d="M192.89,153.97c2.15,0,3.94,1.64,4.28,3.78c-0.75-0.65-1.72-1.04-2.77-1.04   c-2.39,0-4.33,2.02-4.33,4.52c0,0.25,0.02,0.5,0.06,0.74c-0.96-0.83-1.57-2.08-1.57-3.48C188.55,155.99,190.5,153.97,192.89,153.97   z"/>
	<path style="fill:#8E1C17;" d="M192.64,163.55c3.04,0,5.5-2.57,5.5-5.74c0-0.73-0.13-1.43-0.37-2.07c0.59,0.92,0.94,2.02,0.94,3.2   c0,3.17-2.46,5.74-5.5,5.74c-2.34,0-4.33-1.52-5.13-3.67C189.06,162.55,190.74,163.55,192.64,163.55z"/>
	<path style="opacity:0.5;fill:#FFFFFF;" d="M191.34,156.78c-0.28,0.37-0.49,0.79-0.72,1.2c-0.14,0.25-0.34,0.51-0.63,0.52   c-0.34,0-0.55-0.38-0.58-0.71c-0.05-0.64,0.32-1.25,0.76-1.73c0.58-0.64,1.63-1.47,2.55-1.4c0.32,0.03,0.76,0.26,0.83,0.6   c0.1,0.5-0.55,0.57-0.9,0.64C192.1,156.03,191.68,156.33,191.34,156.78z"/>
	<path style="fill:#ACD6EF;" d="M288.01,159.2c0,4.19,3.03,7.59,6.77,7.59c3.74,0,6.77-3.4,6.77-7.59c0-4.19-3.03-7.59-6.77-7.59   c-0.57,0-3.18-0.14-3.71,0.01C288.13,152.45,288.01,155.65,288.01,159.2z"/>
	<ellipse style="fill:#CCE9FF;" cx="291.45" cy="159.2" rx="6.77" ry="7.59"/>
	<polygon style="fill:#D3D3D3;" points="303.03,177.85 262.07,177.85 264.51,202.2 307.29,202.2  "/>
	<polygon style="fill:#F7F7F7;" points="303.03,177.85 304.93,178.48 309.11,202.2 307.29,202.2  "/>
	<polygon style="fill:#D3D3D3;" points="310.2,221.35 269.25,221.35 271.69,245.7 314.47,245.7  "/>
	<polygon style="fill:#CCE9FF;" points="309.11,261.15 299.96,261.15 288.13,173.82 297.57,173.82  "/>
	<polygon style="fill:#CCE9FF;" points="296.31,164.68 281.5,261.15 270.35,261.15 287.15,164.68  "/>
	<polygon style="fill:#ACD6EF;" points="296.31,164.68 298.88,164.68 285.07,261.15 280.61,261.15  "/>
	<polygon style="fill:#ACD6EF;" points="298.88,164.68 312.52,261.15 309.11,261.15 296.85,169.1  "/>
	<g>
		<polygon style="fill:#CCE9FF;" points="211.11,261.15 201.97,261.15 190.14,173.82 199.58,173.82   "/>
		<polygon style="fill:#CCE9FF;" points="198.32,164.68 183.51,261.15 172.35,261.15 189.15,164.68   "/>
		<polygon style="fill:#ACD6EF;" points="198.32,164.68 200.89,164.68 187.07,261.15 182.62,261.15   "/>
		<polygon style="fill:#ACD6EF;" points="200.89,164.68 214.52,261.15 211.11,261.15 198.86,169.1   "/>
	</g>
	<polygon style="fill:#D3D3D3;" points="177.46,202.2 295.36,202.2 299.69,178.58 298.62,176.84 181.78,178.58 176.39,200.46  "/>
	<polygon style="fill:#F7F7F7;" points="176.39,200.46 294.3,200.46 298.62,176.84 180.72,176.84  "/>
	<polygon style="fill:#EA3624;" points="277.87,200.46 294.25,200.46 281.68,176.84 265.29,176.84  "/>
	<polygon style="fill:#EA3624;" points="249.63,200.46 266.02,200.46 253.44,176.84 237.06,176.84  "/>
	<polygon style="fill:#EA3624;" points="221.4,200.58 237.78,200.58 225.21,176.95 208.83,176.95  "/>
	<polygon style="fill:#EA3624;" points="193.17,200.58 209.55,200.58 196.98,176.95 180.6,176.95  "/>
	<polygon style="fill:#D3D3D3;" points="171.46,245.7 289.36,245.7 293.69,222.07 292.62,220.33 175.78,222.07 170.39,243.96  "/>
	<polygon style="fill:#F7F7F7;" points="170.39,243.96 288.3,243.96 292.62,220.33 174.72,220.33  "/>
	<polygon style="fill:#EA3624;" points="271.86,243.96 288.25,243.96 275.67,220.33 259.29,220.33  "/>
	<polygon style="fill:#EA3624;" points="243.63,243.96 260.02,243.96 247.44,220.33 231.06,220.33  "/>
	<polygon style="fill:#EA3624;" points="215.4,244.07 231.78,244.07 219.21,220.45 202.83,220.45  "/>
	<polygon style="fill:#EA3624;" points="187.17,244.07 203.55,244.07 190.98,220.45 174.6,220.45  "/>
	<polygon style="fill:#F7F7F7;" points="310.2,221.35 312.1,221.98 316.28,245.7 314.47,245.7  "/>
	<ellipse style="fill:#EA3624;" cx="291.13" cy="158.94" rx="5.5" ry="5.74"/>
	<path style="fill:#E85F54;" d="M290.81,153.92c2.15,0,3.94,1.64,4.28,3.78c-0.75-0.65-1.72-1.04-2.77-1.04   c-2.39,0-4.33,2.02-4.33,4.52c0,0.25,0.02,0.5,0.06,0.74c-0.96-0.83-1.57-2.08-1.57-3.48   C286.47,155.95,288.41,153.92,290.81,153.92z"/>
	<path style="fill:#8E1C17;" d="M290.56,163.51c3.04,0,5.5-2.57,5.5-5.74c0-0.73-0.13-1.43-0.37-2.07c0.59,0.92,0.94,2.02,0.94,3.2   c0,3.17-2.46,5.74-5.5,5.74c-2.34,0-4.33-1.52-5.13-3.67C286.98,162.5,288.66,163.51,290.56,163.51z"/>
	<path style="opacity:0.5;fill:#FFFFFF;" d="M289.26,156.74c-0.28,0.37-0.49,0.79-0.72,1.2c-0.14,0.25-0.34,0.51-0.63,0.52   c-0.34,0-0.55-0.38-0.58-0.71c-0.05-0.64,0.32-1.25,0.76-1.73c0.58-0.64,1.63-1.47,2.55-1.4c0.32,0.03,0.76,0.26,0.83,0.6   c0.1,0.5-0.55,0.57-0.9,0.64C290.02,155.98,289.59,156.29,289.26,156.74z"/>
	<polygon style="fill:#7E858C;" points="287.28,245.7 273.04,245.7 272.79,247.1 282.83,247.53 286.65,250.13  "/>
	<polygon style="fill:#7E858C;" points="293.51,202.2 280.61,202.2 280.36,203.63 289.9,204.08 292.89,206.54  "/>
	<polygon style="fill:#7E858C;" points="195.53,202.2 182.63,202.2 182.38,203.63 191.91,204.08 194.9,206.54  "/>
	<polygon style="fill:#7E858C;" points="189.29,245.7 175.04,245.7 174.8,247.11 184.83,247.56 188.65,250.11  "/>
</g>
<g xmlns="http://www.w3.org/2000/svg">
	<path style="fill:#DD9619;" d="M115.6,184.46c-1.18,0.54-2.36,1.22-3.08,2.3c-0.72,1.08-0.86,2.64-0.02,3.63   c0.16,0.19,0.35,0.46,0.19,0.64c-0.06,0.06-0.15,0.09-0.23,0.11c-1.53,0.36-3.27,0.14-4.46-0.89c-1.19-1.03-1.6-2.97-0.67-4.24   c0.54-0.74,1.41-1.15,2.27-1.48c1.44-0.55,2.93-0.96,4.45-1.2c1.18-0.19,3.16-0.66,4.3-0.2   C118.18,183.81,116.2,184.19,115.6,184.46z"/>
	<path style="fill:#C98417;" d="M90.42,257.49h10.22l1.67-11.65l31.83,0.56l1.33,11.09h11.72l-6.45-53.82l-14-21.6l-17.4-2.76   l-14.33,7.15L90.42,257.49z M111.53,184.85c5.04-2.18,15.85-3.2,17.74,3.78c0.3,1.1,0.28,2.37-0.4,3.29   c-0.89,1.21-2.57,1.45-4.07,1.52c-2.95,0.13-5.91-0.05-8.82-0.54c-2.16-0.36-4.37-0.93-6.05-2.33c-0.7-0.59-1.32-1.37-1.38-2.29   C108.44,186.67,110.04,185.49,111.53,184.85z"/>
	<path style="fill:#DD9619;" d="M82.17,257.49h11.68l1.71-10.89h26.11l-1.12,10.89c0,0,12.54,0,12.93,0   c0.38,0,6.56-60.93,7.24-66.89c0.04-0.36,0.02-0.73-0.07-1.08c-0.5-1.91-2.66-7.76-10.84-9.83c-9.84-2.49-19.81-1.41-26.11,0.26   c-8,2.13-10.89,8.66-10.89,8.66L82.17,257.49z M103.04,186.51c2.72-1.8,7.09-3.73,13.34-3.72c5.57,0.01,9.87,2.28,12.53,4.31   c1.3,0.99,0.58,3.07-1.06,3.04l-23.9-0.53C102.3,189.57,101.67,187.42,103.04,186.51z"/>
	<path style="fill:#1d4ed8;" d="M77.8,257.49h11.68l1.71-10.89h26.11l-1.12,10.89c0,0,12.54,0,12.93,0c0.37,0,6.66-61.76,7.41-68.32   c0.05-0.45-0.01-0.9-0.17-1.31c-0.69-1.77-3.14-6.2-10.91-8.17c-9.84-2.49-19.81-1.41-26.11,0.26c-8,2.13-10.89,8.66-10.89,8.66   L77.8,257.49z M98.67,186.51c2.72-1.8,7.09-3.73,13.34-3.72c5.57,0.01,9.87,2.28,12.53,4.31c1.3,0.99,0.58,3.07-1.06,3.04   l-23.9-0.53C97.93,189.57,97.3,187.42,98.67,186.51z"/>
	<polygon style="fill:#DD9619;" points="140.72,190.6 150.25,257.49 147.19,257.49 137.88,197.41  "/>
	<polygon style="fill:#DD9619;" points="100.64,257.49 104.54,257.49 106,246.6 102.2,246.6  "/>
	<path style="fill:#DD9619;" d="M125.22,242.36l4.15-36.71c0.46-4.03-2.75-7.55-6.86-7.55H93.94c-1.32,0-2.56,0.37-3.62,1.01   c1.09-2.38,3.52-4.01,6.29-4.01h28.57c4.12,0,7.32,3.52,6.86,7.55l-4.15,36.71c-0.24,2.15-1.49,3.98-3.25,5.04   C124.94,243.77,125.14,243.08,125.22,242.36z"/>
	<path d="M94.88,214.83c0,0,0.94-12.61,15.8-12.6c13.48,0.01,10.58,13.01,10.58,13.01l-2.67,24.99h-7.91l3.35-24.99   c0,0,0.74-6.37-5.62-6.37c-5.79,0-6.29,5.96-6.29,5.96l-1.98,12.32h-7.35L94.88,214.83z"/>
	<polygon points="103.71,221.63 90.49,221.63 95.83,232.45  "/>
</g>
</svg>